<svg version="1.1" xmlns="http://www.w3.org/2000/svg" xmlns:xlink="http://www.w3.org/1999/xlink" x="0px" y="0px" class="svg-top" viewBox="37.25 -100 400 400" enable-background="new 37.25 -100 400 400" xml:space="preserve">
		<path class="svglayer-3" d="M193.957,156.51c2.762,0,5-2.239,5-5s-2.238-5-5-5s-5,2.239-5,5S191.195,156.51,193.957,156.51"/>

		<path class="svglayer-3" d="M256.957,156.51c2.762,0,5-2.239,5-5s-2.238-5-5-5s-5,2.239-5,5S254.195,156.51,256.957,156.51"/>

		<path class="svglayer-3" d="M278.957,156.51c2.762,0,5-2.239,5-5s-2.238-5-5-5s-5,2.239-5,5S276.195,156.51,278.957,156.51"/>

		<path class="svglayer-3" d="M305.457,173.51c2.762,0,5-2.239,5-5s-2.238-5-5-5s-5,2.239-5,5S302.695,173.51,305.457,173.51"/>

		<path class="svglayer-3" d="M293.457,222.51c2.762,0,5-2.239,5-5c0-2.762-2.238-5-5-5s-5,2.238-5,5
			C288.457,220.271,290.695,222.51,293.457,222.51"/>
</svg>
