<svg version="1.1" xmlns="http://www.w3.org/2000/svg" xmlns:xlink="http://www.w3.org/1999/xlink" x="0px" y="0px" class="svg-middle" viewBox="37.25 -100 400 400" enable-background="new 37.25 -100 400 400" xml:space="preserve">
		<path class="svglayer-2" d="M179.705,204.51h-46c-2.761,0-5-2.239-5-5s2.239-5,5-5h46c2.761,0,5,2.239,5,5
			S182.466,204.51,179.705,204.51z"/>

		<path class="svglayer-2" d="M224,147.01h-17.582c-2.762,0-5-2.239-5-5s2.238-5,5-5H224c2.762,0,5,2.239,5,5S226.762,147.01,224,147.01
			z"/>

		<path class="svglayer-2" d="M330.457,156.51h-21.5c-2.762,0-5-2.239-5-5s2.238-5,5-5h21.5c2.762,0,5,2.239,5,5
			S333.219,156.51,330.457,156.51z"/>
</svg>
