<svg version="1.1" xmlns="http://www.w3.org/2000/svg" xmlns:xlink="http://www.w3.org/1999/xlink" x="0px" y="0px" class="svg-bottom" viewBox="37.25 -100 400 400" enable-background="new 37.25 -100 400 400" xml:space="preserve">
	<path class="svglayer-1a" d="M152.208,248.01c-3.313,0-6-2.687-6-6v-100c0-3.313,2.687-6,6-6s6,2.687,6,6v100
		C158.208,245.324,155.522,248.01,152.208,248.01z"/>
	<path class="svglayer-1a" d="M173.208,292.01c-3.313,0-6-2.686-6-6v-188c0-3.313,2.687-6,6-6s6,2.687,6,6v188
		C179.208,289.324,176.522,292.01,173.208,292.01z"/>
	<path class="svglayer-1a" d="M194.209,224.011c-3.313,0-6-2.687-6-6v-52c0-3.313,2.687-6,6-6s6,2.687,6,6v52
		C200.209,221.324,197.522,224.011,194.209,224.011z"/>
	<path class="svglayer-1a" d="M215.209,238.01c-3.313,0-6-2.687-6-6v-118c0-3.313,2.687-6,6-6s6,2.687,6,6v118
		C221.209,235.324,218.522,238.01,215.209,238.01z"/>
	<path class="svglayer-1a" d="M236.209,266.01c-3.313,0-6-2.687-6-6v-166c0-3.313,2.687-6,6-6s6,2.687,6,6v166
		C242.209,263.324,239.522,266.01,236.209,266.01z"/>
	<path class="svglayer-1a" d="M278.207,272.01c-3.313,0-6-2.687-6-6v-100c0-3.313,2.687-6,6-6s6,2.687,6,6v100
		C284.207,269.324,281.521,272.01,278.207,272.01z"/>
	<path class="svglayer-1a" d="M257.207,224.011c-3.313,0-6-2.687-6-6v-52c0-3.313,2.687-6,6-6s6,2.687,6,6v52
		C263.207,221.324,260.521,224.011,257.207,224.011z"/>
	<path class="svglayer-1a" d="M320.207,276.01c-3.313,0-6-2.686-6-6v-156c0-3.313,2.687-6,6-6s6,2.687,6,6v156
		C326.207,273.324,323.521,276.01,320.207,276.01z"/>
	<path class="svglayer-1a" d="M299.207,224.011c-3.313,0-6-2.687-6-6v-52c0-3.313,2.687-6,6-6s6,2.687,6,6v52
		C305.207,221.324,302.521,224.011,299.207,224.011z"/>
	<g>
		<g>
			<path class="svglayer-1b" d="M416.885,88.009c0-100.245-81.264-181.509-181.508-181.509C135.129-93.5,53.866-12.236,53.866,88.009
				c0,21.775,3.839,42.65,10.869,61.994c-6.903,11.772-10.869,25.475-10.869,40.105c0,31.676,18.551,59.017,45.379,71.765V118.345
				c-7.136,3.389-13.677,7.82-19.448,13.082c-2.124-10.359-3.242-21.087-3.242-32.073c0-87.713,71.107-158.82,158.822-158.82
				c87.713,0,158.82,71.107,158.82,158.82c0,10.986-1.117,21.714-3.242,32.073c-5.773-5.262-12.312-9.693-19.447-13.082v143.528
				c26.828-12.748,45.377-40.089,45.377-71.765c0-14.63-3.967-28.333-10.869-40.105C413.045,130.659,416.885,109.784,416.885,88.009
				"/>
			<path class="svglayer-1b" d="M371.008,262.665v-145.11l0.715,0.339c6.842,3.25,13.202,7.479,18.916,12.575
				c2.03-10.185,3.059-20.647,3.059-31.114c0-87.298-71.022-158.32-158.32-158.32c-87.299,0-158.322,71.022-158.322,158.32
				c0,10.463,1.029,20.927,3.058,31.114c5.71-5.095,12.07-9.323,18.917-12.575l0.714-0.339v145.11l-0.714-0.34
				c-27.74-13.181-45.665-41.528-45.665-72.216c0-14.121,3.74-28.001,10.819-40.155c-7.179-19.834-10.819-40.674-10.819-61.944
				C53.366-12.351,135.016-94,235.377-94c100.359,0,182.008,81.649,182.008,182.009c0,21.268-3.641,42.108-10.819,61.944
				c7.079,12.155,10.819,26.035,10.819,40.155c0,30.689-17.924,59.036-45.662,72.216L371.008,262.665z M235.377-93
				C135.567-93,54.366-11.8,54.366,88.009c0,21.232,3.646,42.033,10.838,61.823l0.081,0.221l-0.119,0.203
				c-7.065,12.049-10.8,25.83-10.8,39.852c0,30.04,17.393,57.808,44.379,70.969V119.141c-6.747,3.289-13.005,7.544-18.611,12.656
				l-0.65,0.593l-0.177-0.862c-2.158-10.524-3.252-21.348-3.252-32.173c0-87.85,71.472-159.32,159.322-159.32
				c87.85,0,159.32,71.471,159.32,159.32c0,10.828-1.095,21.653-3.252,32.173l-0.177,0.861l-0.65-0.592
				c-5.61-5.114-11.868-9.369-18.61-12.656v141.937c26.984-13.16,44.377-40.929,44.377-70.969c0-14.021-3.734-27.801-10.801-39.852
				l-0.118-0.203l0.08-0.221c7.192-19.792,10.839-40.593,10.839-61.823C416.385-11.8,335.185-93,235.377-93z"/>
		</g>
	</g>
</svg>
