<svg version="1.1" id="Layer_1" xmlns="http://www.w3.org/2000/svg" xmlns:xlink="http://www.w3.org/1999/xlink" x="0px" y="0px"
	 width="140px" height="140px" viewBox="155 0 140 140" enable-background="new 155 0 140 140" xml:space="preserve">
		<path class="svg-eye" d="M254.007,62.745c0,3.585-2.9,6.489-6.484,6.489c-3.582,0-6.488-2.903-6.488-6.489
			c0-3.582,2.906-6.482,6.488-6.482C251.106,56.263,254.007,59.164,254.007,62.745"/>
		<path class="svg-cog" d="M260.494,64.441c0,0.353-0.283,0.68-0.639,0.726l-2.329,0.284c-0.222,0.879-0.57,1.709-1.033,2.486
			l1.452,1.819c0.22,0.292,0.194,0.725-0.068,0.966l-2.375,2.403c-0.263,0.263-0.701,0.286-0.967,0.065l-1.844-1.451
			c-0.771,0.461-1.605,0.792-2.488,1.033l-0.282,2.33c-0.045,0.354-0.373,0.637-0.725,0.637h-3.365c-0.35,0-0.683-0.283-0.727-0.637
			l-0.284-2.33c-0.878-0.242-1.717-0.572-2.484-1.033l-1.85,1.451c-0.263,0.221-0.706,0.176-0.966-0.065l-2.373-2.403
			c-0.265-0.241-0.286-0.675-0.068-0.966l1.454-1.819c-0.461-0.777-0.793-1.606-1.036-2.486l-2.331-0.284
			c-0.349-0.046-0.636-0.374-0.636-0.726v-3.367c0-0.373,0.287-0.683,0.636-0.722l2.331-0.287c0.221-0.885,0.575-1.718,1.036-2.508
			l-1.454-1.824c-0.218-0.286-0.196-0.726,0.068-0.968l2.373-2.393c0.26-0.242,0.703-0.265,0.966-0.046l1.85,1.429
			c0.768-0.438,1.605-0.792,2.484-1.036l0.284-2.307c0.021-0.354,0.354-0.658,0.727-0.658h3.365c0.352,0,0.68,0.304,0.725,0.658
			l0.282,2.307c0.881,0.243,1.718,0.598,2.488,1.036l1.823-1.45c0.286-0.22,0.725-0.176,0.967,0.066l2.396,2.393
			c0.241,0.242,0.264,0.682,0.046,0.968l-1.43,1.824c0.441,0.768,0.79,1.607,1.033,2.487l2.31,0.286
			c0.352,0.042,0.66,0.371,0.66,0.727v3.384H260.494z M215.467,64.441c0,0.353-0.289,0.68-0.64,0.726l-2.329,0.284
			c-0.22,0.879-0.574,1.709-1.037,2.486l1.454,1.819c0.22,0.292,0.196,0.725-0.069,0.966l-2.375,2.403
			c-0.256,0.263-0.703,0.286-0.961,0.065l-1.852-1.451c-0.766,0.461-1.605,0.792-2.481,1.033l-0.287,2.33
			c-0.044,0.354-0.373,0.637-0.727,0.637h-3.358c-0.355,0-0.681-0.283-0.729-0.637l-0.285-2.33c-0.88-0.242-1.718-0.572-2.48-1.033
			l-1.847,1.451c-0.264,0.221-0.709,0.176-0.968-0.065l-2.377-2.403c-0.264-0.241-0.287-0.675-0.066-0.966l1.452-1.819
			c-0.46-0.777-0.79-1.606-1.036-2.486l-2.328-0.284c-0.35-0.046-0.637-0.374-0.637-0.726v-3.367c0-0.373,0.287-0.683,0.637-0.722
			l2.328-0.287c0.218-0.885,0.575-1.718,1.036-2.508l-1.452-1.824c-0.22-0.286-0.197-0.726,0.066-0.968l2.377-2.393
			c0.259-0.242,0.704-0.265,0.968-0.046l1.847,1.429c0.763-0.438,1.601-0.792,2.48-1.036l0.285-2.307
			c0.026-0.354,0.348-0.658,0.729-0.658h3.358c0.354,0,0.683,0.304,0.727,0.658l0.287,2.307c0.876,0.243,1.715,0.598,2.481,1.036
			l1.83-1.45c0.282-0.22,0.728-0.176,0.969,0.066l2.39,2.393c0.242,0.242,0.266,0.682,0.048,0.968l-1.433,1.824
			c0.438,0.768,0.795,1.607,1.037,2.487l2.309,0.286c0.354,0.042,0.66,0.371,0.66,0.727L215.467,64.441L215.467,64.441z
			 M278.499,60.77l-10.046-1.208c-1.035-3.852-2.53-7.454-4.486-10.821l6.247-7.933c0.965-1.235,0.854-3.104-0.242-4.201
			l-10.357-10.356c-1.1-1.099-2.991-1.235-4.201-0.266l-7.956,6.243c-3.344-1.932-6.971-3.43-10.796-4.441l-1.21-10.047
			c-0.175-1.534-1.582-2.791-3.146-2.791h-14.641c-1.542,0-2.97,1.255-3.145,2.791l-1.211,10.047
			c-3.822,1.013-7.45,2.532-10.797,4.465l-7.958-6.242c-1.209-0.97-3.095-0.857-4.2,0.242l-10.333,10.356
			c-1.097,1.096-1.21,2.988-0.263,4.201l6.248,7.958c-1.937,3.343-3.435,6.968-4.466,10.797l-10.021,1.208
			c-1.543,0.171-2.793,1.604-2.793,3.138v14.648c0,1.556,1.25,2.963,2.793,3.139l10.045,1.209h86.867l10.046-1.209
			c1.537-0.199,2.815-1.605,2.815-3.139V63.909C281.294,62.352,280.016,60.941,278.499,60.77"/>
		<path class="svg-eye" d="M208.981,62.745c0,3.585-2.904,6.489-6.482,6.489c-3.588,0-6.489-2.903-6.489-6.489
			c0-3.582,2.901-6.482,6.489-6.482C206.077,56.263,208.981,59.164,208.981,62.745"/>
		<path class="svg-cog" d="M182.443,25.129l-16.666-14.355c1.739-2.352,1.557-5.675-0.575-7.785c-2.33-2.331-6.106-2.331-8.442,0
			c-2.348,2.331-2.348,6.113,0,8.442c2.116,2.132,5.429,2.308,7.76,0.573l14.382,16.667L182.443,25.129z"/>
		<path class="svg-cog" d="M293.248,2.987c-2.327-2.354-6.109-2.354-8.461,0c-2.109,2.11-2.285,5.432-0.55,7.76l-16.666,14.38
			l3.52,3.539l14.377-16.686c2.354,1.754,5.653,1.58,7.78-0.553C295.584,9.099,295.584,5.318,293.248,2.987"/>
		<path class="svg-cog" d="M261.264,93.896l0.771-1.313c0.988-1.742,1.846-3.54,2.595-5.408H250.82
			c-5.363,8.658-14.905,14.444-25.809,14.444c-10.906,0-20.471-5.786-25.833-14.444h-13.807c0.742,1.867,1.606,3.666,2.589,5.408
			l0.771,1.313l-7.167,9.148c-0.264,0.313-0.218,0.928,0.063,1.209l10.356,10.361c0.267,0.286,0.901,0.33,1.212,0.088l9.147-7.211
			l1.322,0.763c3.208,1.848,6.658,3.275,10.265,4.251l1.453,0.388l1.408,11.543c0.037,0.417,0.5,0.818,0.9,0.818h14.64
			c0.419,0,0.858-0.4,0.921-0.791l1.386-11.572l1.473-0.388c3.583-0.976,7.037-2.403,10.247-4.251l1.319-0.748l9.147,7.175
			c0.307,0.242,0.943,0.196,1.23-0.066l10.33-10.361c0.287-0.281,0.332-0.896,0.068-1.226L261.264,93.896z"/>
		<path class="svg-cog" d="M180.949,111.329l-14.382,16.667c-2.331-1.735-5.644-1.557-7.76,0.574c-2.348,2.328-2.348,6.11,0,8.443
			c2.335,2.328,6.112,2.328,8.441,0c2.132-2.11,2.314-5.436,0.575-7.788l16.665-14.355L180.949,111.329z"/>
		<path class="svg-cog" d="M291.2,137.014c2.336-2.331,2.336-6.113,0-8.441c-2.127-2.133-5.425-2.309-7.78-0.554l-14.377-16.687
			l-3.52,3.539l16.666,14.381c-1.734,2.328-1.56,5.652,0.55,7.762C285.094,139.367,288.873,139.367,291.2,137.014"/>
</svg>
