<?xml version="1.0" encoding="utf-8"?>
<!-- Generator: Adobe Illustrator 15.0.2, SVG Export Plug-In . SVG Version: 6.00 Build 0)  -->
<!DOCTYPE svg PUBLIC "-//W3C//DTD SVG 1.1//EN" "http://www.w3.org/Graphics/SVG/1.1/DTD/svg11.dtd">
<svg version="1.1" id="Layer_1" xmlns="http://www.w3.org/2000/svg" xmlns:xlink="http://www.w3.org/1999/xlink" x="0px" y="0px"
	 width="1050px" height="850px" viewBox="0 0 1050 850" enable-background="new 0 0 1050 850" xml:space="preserve">
<rect x="215.129" y="640.861" fill="#CFE7E7" stroke="#9CC1C4" stroke-width="2" stroke-miterlimit="10" width="803.459" height="200.521"/>
<rect x="54.312" y="104.962" fill="#EB6D3A" stroke="#231F20" stroke-miterlimit="10" width="123.964" height="355.331"/>
<rect x="63.15" y="113.326" fill="#FFEBC4" width="106.286" height="106.289"/>
<rect x="63.15" y="228.909" fill="#FFEBC4" width="106.286" height="106.287"/>
<rect x="63.15" y="344.489" fill="#FFEBC4" width="106.286" height="106.288"/>
<rect x="215.129" y="8.618" fill="#9CC1C4" stroke="#9CC1C4" stroke-miterlimit="10" width="803.459" height="549.374"/>
<rect x="178.275" y="158.096" fill="#231F20" width="36.854" height="16.748"/>
<rect x="178.275" y="274.256" fill="#231F20" width="36.854" height="16.746"/>
<rect x="178.275" y="389.259" fill="#231F20" width="36.854" height="16.748"/>
<rect x="204.295" y="152.785" fill="#231F20" width="10.834" height="27.368"/>
<rect x="204.295" y="268.332" fill="#231F20" width="10.834" height="28.593"/>
<rect x="204.295" y="383.878" fill="#231F20" width="10.834" height="27.509"/>
<rect x="302.343" y="77.747" fill="#FFFFFF" stroke="#EBEBEC" stroke-width="5" stroke-miterlimit="10" width="629.033" height="411.116"/>
<rect x="311.729" y="85.993" fill="#FFEBC4" width="610.263" height="394.624"/>
<circle fill="#F4CE62" cx="75.768" cy="88.538" r="12.617"/>
<circle fill="#F8E2A1" cx="116.294" cy="88.538" r="12.617"/>
<circle fill="#F4CE62" cx="156.82" cy="88.538" r="12.617"/>
<circle fill="#F8E2A1" cx="75.768" cy="475.613" r="12.617"/>
<circle fill="#F4CE62" cx="116.294" cy="475.613" r="12.617"/>
<circle fill="#F8E2A1" cx="156.82" cy="475.613" r="12.617"/>
<circle fill="#F8E2A1" cx="37.617" cy="206.996" r="12.619"/>
<circle fill="#F4CE62" cx="37.617" cy="166.469" r="12.617"/>
<circle fill="#F8E2A1" cx="37.617" cy="125.943" r="12.617"/>
<circle fill="#F4CE62" cx="37.617" cy="323.154" r="12.617"/>
<circle fill="#F8E2A1" cx="37.617" cy="282.629" r="12.617"/>
<circle fill="#F4CE62" cx="37.617" cy="242.103" r="12.617"/>
<circle fill="#F4CE62" cx="37.617" cy="439.312" r="12.617"/>
<circle fill="#F4CE62" cx="37.617" cy="398.786" r="12.617"/>
<circle fill="#F8E2A1" cx="37.617" cy="358.26" r="12.617"/>
<rect x="208.718" y="557.992" fill="#F4CE62" stroke="#FCEBA0" stroke-width="4" stroke-miterlimit="10" width="816.282" height="82.869"/>
<g>
	<circle fill="#EB6D3A" cx="222.914" cy="567.611" r="3.662"/>
	<circle fill="#EB6D3A" cx="243.973" cy="567.611" r="3.662"/>
	<circle fill="#EB6D3A" cx="265.032" cy="567.611" r="3.662"/>
	<circle fill="#EB6D3A" cx="286.091" cy="567.611" r="3.662"/>
	<circle fill="#EB6D3A" cx="307.15" cy="567.611" r="3.662"/>
	<circle fill="#EB6D3A" cx="328.208" cy="567.611" r="3.662"/>
	<circle fill="#EB6D3A" cx="349.267" cy="567.611" r="3.662"/>
	<circle fill="#EB6D3A" cx="370.326" cy="567.611" r="3.662"/>
	<circle fill="#EB6D3A" cx="391.385" cy="567.611" r="3.662"/>
	<circle fill="#EB6D3A" cx="412.444" cy="567.611" r="3.662"/>
	<circle fill="#EB6D3A" cx="433.503" cy="567.611" r="3.662"/>
	<circle fill="#EB6D3A" cx="454.562" cy="567.611" r="3.662"/>
	<circle fill="#EB6D3A" cx="475.621" cy="567.611" r="3.662"/>
	<circle fill="#EB6D3A" cx="496.68" cy="567.611" r="3.662"/>
	<circle fill="#EB6D3A" cx="517.739" cy="567.611" r="3.662"/>
	<circle fill="#EB6D3A" cx="538.797" cy="567.611" r="3.662"/>
	<circle fill="#EB6D3A" cx="559.856" cy="567.611" r="3.662"/>
	<circle fill="#EB6D3A" cx="580.915" cy="567.611" r="3.663"/>
	<circle fill="#EB6D3A" cx="601.974" cy="567.611" r="3.662"/>
	<circle fill="#EB6D3A" cx="623.033" cy="567.611" r="3.662"/>
	<circle fill="#EB6D3A" cx="644.092" cy="567.611" r="3.662"/>
	<circle fill="#EB6D3A" cx="665.151" cy="567.611" r="3.662"/>
	<circle fill="#EB6D3A" cx="686.209" cy="567.611" r="3.662"/>
	<circle fill="#EB6D3A" cx="707.27" cy="567.611" r="3.661"/>
	<circle fill="#EB6D3A" cx="728.328" cy="567.611" r="3.662"/>
	<circle fill="#EB6D3A" cx="749.386" cy="567.611" r="3.662"/>
	<circle fill="#EB6D3A" cx="770.445" cy="567.611" r="3.662"/>
	<circle fill="#EB6D3A" cx="791.504" cy="567.611" r="3.662"/>
	<circle fill="#EB6D3A" cx="812.562" cy="567.611" r="3.662"/>
	<circle fill="#EB6D3A" cx="833.622" cy="567.611" r="3.662"/>
	<circle fill="#EB6D3A" cx="854.681" cy="567.611" r="3.661"/>
	<circle fill="#EB6D3A" cx="875.74" cy="567.611" r="3.662"/>
	<circle fill="#EB6D3A" cx="896.798" cy="567.611" r="3.662"/>
	<circle fill="#EB6D3A" cx="917.857" cy="567.611" r="3.662"/>
	<circle fill="#EB6D3A" cx="938.917" cy="567.611" r="3.662"/>
	<circle fill="#EB6D3A" cx="959.975" cy="567.611" r="3.662"/>
	<circle fill="#EB6D3A" cx="981.034" cy="567.611" r="3.662"/>
	<circle fill="#EB6D3A" cx="1002.093" cy="567.611" r="3.662"/>
	<circle fill="#CBE8DC" cx="233.444" cy="567.611" r="3.662"/>
	<circle fill="#CBE8DC" cx="254.502" cy="567.611" r="3.662"/>
	<circle fill="#CBE8DC" cx="275.561" cy="567.611" r="3.662"/>
	<circle fill="#CBE8DC" cx="296.62" cy="567.611" r="3.662"/>
	<circle fill="#CBE8DC" cx="317.679" cy="567.611" r="3.662"/>
	<circle fill="#CBE8DC" cx="338.738" cy="567.611" r="3.662"/>
	<circle fill="#CBE8DC" cx="359.797" cy="567.611" r="3.662"/>
	<circle fill="#CBE8DC" cx="380.855" cy="567.611" r="3.662"/>
	<circle fill="#CBE8DC" cx="401.915" cy="567.611" r="3.662"/>
	<circle fill="#CBE8DC" cx="422.973" cy="567.611" r="3.662"/>
	<circle fill="#CBE8DC" cx="444.032" cy="567.611" r="3.662"/>
	<circle fill="#CBE8DC" cx="465.091" cy="567.611" r="3.662"/>
	<circle fill="#CBE8DC" cx="486.15" cy="567.611" r="3.662"/>
	<circle fill="#CBE8DC" cx="507.209" cy="567.611" r="3.662"/>
	<circle fill="#CBE8DC" cx="528.268" cy="567.611" r="3.662"/>
	<circle fill="#CBE8DC" cx="549.327" cy="567.611" r="3.663"/>
	<circle fill="#CBE8DC" cx="570.386" cy="567.611" r="3.662"/>
	<circle fill="#CBE8DC" cx="591.444" cy="567.611" r="3.662"/>
	<circle fill="#CBE8DC" cx="612.502" cy="567.611" r="3.662"/>
	<circle fill="#CBE8DC" cx="633.562" cy="567.611" r="3.662"/>
	<circle fill="#CBE8DC" cx="654.621" cy="567.611" r="3.662"/>
	<circle fill="#CBE8DC" cx="675.681" cy="567.611" r="3.662"/>
	<circle fill="#CBE8DC" cx="696.739" cy="567.611" r="3.662"/>
	<circle fill="#CBE8DC" cx="717.798" cy="567.611" r="3.662"/>
	<circle fill="#CBE8DC" cx="738.855" cy="567.611" r="3.662"/>
	<circle fill="#CBE8DC" cx="759.917" cy="567.611" r="3.662"/>
	<circle fill="#CBE8DC" cx="780.974" cy="567.611" r="3.662"/>
	<circle fill="#CBE8DC" cx="802.034" cy="567.611" r="3.661"/>
	<circle fill="#CBE8DC" cx="823.091" cy="567.611" r="3.662"/>
	<circle fill="#CBE8DC" cx="844.152" cy="567.611" r="3.662"/>
	<circle fill="#CBE8DC" cx="865.209" cy="567.611" r="3.662"/>
	<circle fill="#CBE8DC" cx="886.27" cy="567.611" r="3.662"/>
	<circle fill="#CBE8DC" cx="907.327" cy="567.611" r="3.661"/>
	<circle fill="#CBE8DC" cx="928.387" cy="567.611" r="3.662"/>
	<circle fill="#CBE8DC" cx="949.445" cy="567.611" r="3.662"/>
	<circle fill="#CBE8DC" cx="970.505" cy="567.611" r="3.662"/>
	<circle fill="#CBE8DC" cx="991.562" cy="567.611" r="3.662"/>
	<circle fill="#CBE8DC" cx="1012.623" cy="567.611" r="3.662"/>
</g>
<g>
	<circle fill="#EB6D3A" cx="222.914" cy="633.537" r="3.662"/>
	<circle fill="#EB6D3A" cx="243.973" cy="633.537" r="3.662"/>
	<circle fill="#EB6D3A" cx="265.032" cy="633.537" r="3.662"/>
	<circle fill="#EB6D3A" cx="286.091" cy="633.537" r="3.662"/>
	<circle fill="#EB6D3A" cx="307.15" cy="633.537" r="3.662"/>
	<circle fill="#EB6D3A" cx="328.208" cy="633.537" r="3.662"/>
	<circle fill="#EB6D3A" cx="349.267" cy="633.537" r="3.662"/>
	<circle fill="#EB6D3A" cx="370.326" cy="633.537" r="3.662"/>
	<circle fill="#EB6D3A" cx="391.385" cy="633.537" r="3.662"/>
	<circle fill="#EB6D3A" cx="412.444" cy="633.537" r="3.662"/>
	<circle fill="#EB6D3A" cx="433.503" cy="633.537" r="3.662"/>
	<circle fill="#EB6D3A" cx="454.562" cy="633.537" r="3.662"/>
	<circle fill="#EB6D3A" cx="475.621" cy="633.537" r="3.662"/>
	<circle fill="#EB6D3A" cx="496.68" cy="633.537" r="3.662"/>
	<circle fill="#EB6D3A" cx="517.739" cy="633.537" r="3.662"/>
	<circle fill="#EB6D3A" cx="538.797" cy="633.537" r="3.662"/>
	<circle fill="#EB6D3A" cx="559.856" cy="633.537" r="3.662"/>
	<circle fill="#EB6D3A" cx="580.915" cy="633.537" r="3.663"/>
	<circle fill="#EB6D3A" cx="601.974" cy="633.537" r="3.662"/>
	<circle fill="#EB6D3A" cx="623.033" cy="633.537" r="3.662"/>
	<circle fill="#EB6D3A" cx="644.092" cy="633.537" r="3.662"/>
	<circle fill="#EB6D3A" cx="665.151" cy="633.537" r="3.662"/>
	<circle fill="#EB6D3A" cx="686.209" cy="633.537" r="3.662"/>
	<circle fill="#EB6D3A" cx="707.27" cy="633.537" r="3.661"/>
	<circle fill="#EB6D3A" cx="728.328" cy="633.537" r="3.662"/>
	<circle fill="#EB6D3A" cx="749.386" cy="633.537" r="3.662"/>
	<circle fill="#EB6D3A" cx="770.445" cy="633.537" r="3.662"/>
	<circle fill="#EB6D3A" cx="791.504" cy="633.537" r="3.662"/>
	<circle fill="#EB6D3A" cx="812.562" cy="633.537" r="3.662"/>
	<circle fill="#EB6D3A" cx="833.622" cy="633.537" r="3.662"/>
	<circle fill="#EB6D3A" cx="854.681" cy="633.537" r="3.661"/>
	<circle fill="#EB6D3A" cx="875.74" cy="633.537" r="3.662"/>
	<circle fill="#EB6D3A" cx="896.798" cy="633.537" r="3.662"/>
	<circle fill="#EB6D3A" cx="917.857" cy="633.537" r="3.662"/>
	<circle fill="#EB6D3A" cx="938.917" cy="633.537" r="3.662"/>
	<circle fill="#EB6D3A" cx="959.975" cy="633.537" r="3.662"/>
	<circle fill="#EB6D3A" cx="981.034" cy="633.537" r="3.662"/>
	<circle fill="#EB6D3A" cx="1002.093" cy="633.537" r="3.662"/>
	<circle fill="#CBE8DC" cx="233.444" cy="633.537" r="3.662"/>
	<circle fill="#CBE8DC" cx="254.502" cy="633.537" r="3.662"/>
	<circle fill="#CBE8DC" cx="275.561" cy="633.537" r="3.662"/>
	<circle fill="#CBE8DC" cx="296.62" cy="633.537" r="3.662"/>
	<circle fill="#CBE8DC" cx="317.679" cy="633.537" r="3.662"/>
	<circle fill="#CBE8DC" cx="338.738" cy="633.537" r="3.662"/>
	<circle fill="#CBE8DC" cx="359.797" cy="633.537" r="3.662"/>
	<circle fill="#CBE8DC" cx="380.855" cy="633.537" r="3.662"/>
	<circle fill="#CBE8DC" cx="401.915" cy="633.537" r="3.662"/>
	<circle fill="#CBE8DC" cx="422.973" cy="633.537" r="3.662"/>
	<circle fill="#CBE8DC" cx="444.032" cy="633.537" r="3.662"/>
	<circle fill="#CBE8DC" cx="465.091" cy="633.537" r="3.662"/>
	<circle fill="#CBE8DC" cx="486.15" cy="633.537" r="3.662"/>
	<circle fill="#CBE8DC" cx="507.209" cy="633.537" r="3.662"/>
	<circle fill="#CBE8DC" cx="528.268" cy="633.537" r="3.662"/>
	<circle fill="#CBE8DC" cx="549.327" cy="633.537" r="3.663"/>
	<circle fill="#CBE8DC" cx="570.386" cy="633.537" r="3.662"/>
	<circle fill="#CBE8DC" cx="591.444" cy="633.537" r="3.662"/>
	<circle fill="#CBE8DC" cx="612.502" cy="633.537" r="3.662"/>
	<circle fill="#CBE8DC" cx="633.562" cy="633.537" r="3.662"/>
	<circle fill="#CBE8DC" cx="654.621" cy="633.537" r="3.662"/>
	<circle fill="#CBE8DC" cx="675.681" cy="633.537" r="3.662"/>
	<circle fill="#CBE8DC" cx="696.739" cy="633.537" r="3.662"/>
	<circle fill="#CBE8DC" cx="717.798" cy="633.537" r="3.662"/>
	<circle fill="#CBE8DC" cx="738.855" cy="633.537" r="3.662"/>
	<circle fill="#CBE8DC" cx="759.917" cy="633.537" r="3.662"/>
	<circle fill="#CBE8DC" cx="780.974" cy="633.537" r="3.662"/>
	<circle fill="#CBE8DC" cx="802.034" cy="633.537" r="3.661"/>
	<circle fill="#CBE8DC" cx="823.091" cy="633.537" r="3.662"/>
	<circle fill="#CBE8DC" cx="844.152" cy="633.537" r="3.662"/>
	<circle fill="#CBE8DC" cx="865.209" cy="633.537" r="3.662"/>
	<circle fill="#CBE8DC" cx="886.27" cy="633.537" r="3.662"/>
	<circle fill="#CBE8DC" cx="907.327" cy="633.537" r="3.661"/>
	<circle fill="#CBE8DC" cx="928.387" cy="633.537" r="3.662"/>
	<circle fill="#CBE8DC" cx="949.445" cy="633.537" r="3.662"/>
	<circle fill="#CBE8DC" cx="970.505" cy="633.537" r="3.662"/>
	<circle fill="#CBE8DC" cx="991.562" cy="633.537" r="3.662"/>
	<circle fill="#CBE8DC" cx="1012.623" cy="633.537" r="3.662"/>
</g>
<path fill="none" stroke="#231F20" stroke-width="2" stroke-linecap="round" stroke-linejoin="round" stroke-miterlimit="10" d="
	M856.684,594.837c0,0,32.695-0.346,41.52,0s61.064,0.039,63.661-0.154c2.595-0.189,11.417-0.361,12.456-0.711
	c1.038-0.346,1.729-7.609,2.248-7.781c0.519-0.178,25.603,14.014,25.603,15.049c0,1.039-30.79,11.764-32.003,11.418
	c-1.211-0.347,2.076-7.783,1.559-8.479c-0.521-0.691-59.512-0.172-61.588-0.346c-2.072-0.172-55.527-0.172-55.527-0.172"/>
<path fill="none" stroke="#231F20" stroke-width="2" stroke-linecap="round" stroke-linejoin="round" stroke-miterlimit="10" d="
	M375.192,604.013c0,0-32.695,0.348-41.521,0c-8.822-0.346-61.065-0.039-63.661,0.152c-2.595,0.193-11.417,0.365-12.456,0.711
	c-1.038,0.348-1.73,7.613-2.248,7.785c-0.519,0.174-25.603-14.016-25.603-15.051c0-1.037,30.791-11.764,32.003-11.419
	c1.211,0.349-2.076,7.784-1.557,8.479s59.51,0.172,61.586,0.346c2.074,0.172,55.528,0.172,55.528,0.172"/>
<path fill="none" stroke="#231F20" stroke-width="2" stroke-linecap="round" stroke-linejoin="round" stroke-miterlimit="10" d="
	M844.808,255.858c0,0-97.986,1.042-124.436,0c-26.44-1.036-183.012-0.117-190.791,0.457c-7.777,0.58-34.217,1.095-37.328,2.131
	c-3.114,1.042-5.187,22.817-6.737,23.332c-1.557,0.521-76.733-42.005-76.733-45.107c0-3.108,92.28-35.255,95.912-34.223
	c3.629,1.045-6.222,23.329-4.668,25.41c1.557,2.081,178.353,0.515,184.574,1.036c6.217,0.515,166.418,0.515,166.418,0.515"/>
<line fill="none" stroke="#9CC1C4" stroke-width="2" stroke-miterlimit="10" x1="378.328" y1="655.968" x2="378.328" y2="829.48"/>
<line fill="none" stroke="#9CC1C4" stroke-width="2" stroke-miterlimit="10" x1="537.013" y1="655.968" x2="537.013" y2="829.48"/>
<line fill="none" stroke="#9CC1C4" stroke-width="2" stroke-miterlimit="10" x1="695.697" y1="655.968" x2="695.697" y2="829.48"/>
<line fill="none" stroke="#9CC1C4" stroke-width="2" stroke-miterlimit="10" x1="854.383" y1="655.968" x2="854.383" y2="829.48"/>
<text transform="matrix(1 0 0 1 459.3223 328.2754)"><tspan x="0" y="0" font-family="'MyriadPro-Regular'" font-size="24.8625">CLICK ON A THUMB ON THE LEFT</tspan><tspan x="52.185" y="29.835" font-family="'MyriadPro-Regular'" font-size="24.8625">TO WATCH THE VIDEO!</tspan></text>
</svg>
